<?xml version="1.0" encoding="utf-8" ?>
<!-- Generator: Adobe Illustrator 19.2.0, SVG Export Plug-In . SVG Version: 6.00 Build 0)  -->
<svg version="1.1" id="Layer_1" xmlns="http://www.w3.org/2000/svg" xmlns:xlink="http://www.w3.org/1999/xlink" x="0px" y="0px" viewBox="0 0 2240 1048" style="enable-background:new 0 0 2240 1048;" xml:space="preserve">
  <style type="text/css">
    .st0 {
      opacity: 0.09;
      fill: url(#SVGID_1_);
    }
    .st1 {
      opacity: 0.09;
      fill: url(#SVGID_2_);
    }
    .st2 {
      opacity: 0.09;
      fill: url(#SVGID_3_);
    }
    .st3 {
      opacity: 0.09;
      fill: url(#SVGID_4_);
    }
    .st4 {
      opacity: 0.09;
      fill: url(#SVGID_5_);
    }
    .st5 {
      opacity: 0.09;
      fill: url(#SVGID_6_);
    }
    .st6 {
      opacity: 0.09;
      fill: url(#SVGID_7_);
    }
    .st7 {
      opacity: 0.09;
      fill: url(#SVGID_8_);
    }
    .st8 {
      opacity: 0.09;
      fill: url(#SVGID_9_);
    }
    .st9 {
      opacity: 0.09;
      fill: url(#SVGID_10_);
    }
    .st10 {
      opacity: 0.09;
      fill: url(#SVGID_11_);
    }
    .st11 {
      opacity: 0.09;
      fill: url(#SVGID_12_);
    }
    .st12 {
      opacity: 0.09;
      fill: url(#SVGID_13_);
    }
    .st13 {
      opacity: 0.09;
      fill: url(#SVGID_14_);
    }
    .st14 {
      opacity: 0.09;
      fill: url(#SVGID_15_);
    }
    .st15 {
      opacity: 0.09;
      fill: url(#SVGID_16_);
    }
    .st16 {
      opacity: 0.09;
      fill: url(#SVGID_17_);
    }
    .st17 {
      opacity: 0.09;
      fill: url(#SVGID_18_);
    }
    .st18 {
      opacity: 0.09;
      fill: url(#SVGID_19_);
    }
    .st19 {
      opacity: 0.09;
      fill: url(#SVGID_20_);
    }
    .st20 {
      opacity: 0.09;
      fill: url(#SVGID_21_);
    }
    .st21 {
      opacity: 0.09;
      fill: url(#SVGID_22_);
    }
    .st22 {
      opacity: 0.09;
      fill: url(#SVGID_23_);
    }
    .st23 {
      opacity: 0.09;
      fill: url(#SVGID_24_);
    }
    .st24 {
      opacity: 0.09;
      fill: url(#SVGID_25_);
    }
    .st25 {
      opacity: 0.09;
      fill: url(#SVGID_26_);
    }
    .st26 {
      opacity: 0.09;
      fill: url(#SVGID_27_);
    }
    .st27 {
      opacity: 0.09;
      fill: url(#SVGID_28_);
    }
    .st28 {
      opacity: 0.09;
      fill: url(#SVGID_29_);
    }
    .st29 {
      opacity: 0.09;
      fill: url(#SVGID_30_);
    }
    .st30 {
      opacity: 0.09;
      fill: url(#SVGID_31_);
    }
    .st31 {
      opacity: 0.09;
      fill: url(#SVGID_32_);
    }
    .st32 {
      opacity: 0.09;
      fill: url(#SVGID_33_);
    }
    .st33 {
      opacity: 0.09;
      fill: url(#SVGID_34_);
    }
    .st34 {
      opacity: 0.09;
      fill: url(#SVGID_35_);
    }
    .st35 {
      opacity: 0.09;
      fill: url(#SVGID_36_);
    }
    .st36 {
      opacity: 0.09;
      fill: url(#SVGID_37_);
    }
    .st37 {
      opacity: 8.0900000e-02;
      fill: url(#SVGID_38_);
    }
    .st38 {
      opacity: 8.0900000e-02;
      fill: url(#SVGID_39_);
    }
    .st39 {
      opacity: 0.09;
      fill: url(#SVGID_40_);
    }
    .st40 {
      opacity: 0.09;
      fill: url(#SVGID_41_);
    }
    .st41 {
      opacity: 0.09;
      fill: url(#SVGID_42_);
    }
    .st42 {
      opacity: 0.09;
      fill: url(#SVGID_43_);
    }
    .st43 {
      opacity: 0.09;
      fill: url(#SVGID_44_);
    }
    .st44 {
      opacity: 0.09;
      fill: url(#SVGID_45_);
    }
    .st45 {
      opacity: 0.09;
      fill: url(#SVGID_46_);
    }
    .st46 {
      opacity: 0.09;
      fill: url(#SVGID_47_);
    }
    .st47 {
      opacity: 0.09;
      fill: url(#SVGID_48_);
    }
    .st48 {
      opacity: 0.09;
      fill: url(#SVGID_49_);
    }
    .st49 {
      opacity: 0.09;
      fill: url(#SVGID_50_);
    }
    .st50 {
      opacity: 0.09;
      fill: url(#SVGID_51_);
    }
    .st51 {
      opacity: 0.09;
      fill: url(#SVGID_52_);
    }
    .st52 {
      opacity: 0.09;
      fill: url(#SVGID_53_);
    }
    .st53 {
      opacity: 0.093;
      fill: url(#SVGID_54_);
    }
    .st54 {
      opacity: 7.0900000e-02;
      fill: url(#SVGID_55_);
    }
    .st55 {
      opacity: 7.0900000e-02;
      fill: url(#SVGID_56_);
    }
    .st56 {
      opacity: 0.09;
      fill: url(#SVGID_57_);
    }
    .st57 {
      opacity: 0.09;
      fill: url(#SVGID_58_);
    }
    .st58 {
      opacity: 0.09;
      fill: url(#SVGID_59_);
    }
    .st59 {
      opacity: 0.09;
      fill: url(#SVGID_60_);
    }
    .st60 {
      opacity: 7.0900000e-02;
      fill: url(#SVGID_61_);
    }
    .st61 {
      opacity: 0.09;
      fill: url(#SVGID_62_);
    }
    .st62 {
      opacity: 0.09;
      fill: url(#SVGID_63_);
    }
    .st63 {
      opacity: 0.09;
      fill: url(#SVGID_64_);
    }
    .st64 {
      opacity: 0.09;
      fill: url(#SVGID_65_);
    }
    .st65 {
      opacity: 0.09;
      fill: url(#SVGID_66_);
    }
    .st66 {
      opacity: 0.09;
      fill: url(#SVGID_67_);
    }
    .st67 {
      opacity: 0.09;
      fill: url(#SVGID_68_);
    }
    .st68 {
      opacity: 0.09;
      fill: url(#SVGID_69_);
    }
    .st69 {
      opacity: 0.09;
      fill: url(#SVGID_70_);
    }
    .st70 {
      opacity: 0.09;
      fill: url(#SVGID_71_);
    }
    .st71 {
      opacity: 0.09;
      fill: url(#SVGID_72_);
    }
    .st72 {
      opacity: 0.09;
      fill: url(#SVGID_73_);
    }
    .st73 {
      opacity: 0.09;
      fill: url(#SVGID_74_);
    }
    .st74 {
      opacity: 0.09;
      fill: url(#SVGID_75_);
    }
    .st75 {
      opacity: 0.09;
      fill: url(#SVGID_76_);
    }
    .st76 {
      opacity: 0.09;
      fill: url(#SVGID_77_);
    }
    .st77 {
      opacity: 0.09;
      fill: url(#SVGID_78_);
    }
    .st78 {
      opacity: 0.09;
      fill: url(#SVGID_79_);
    }
    .st79 {
      opacity: 0.09;
      fill: url(#SVGID_80_);
    }
  </style>
  <linearGradient id="SVGID_1_" gradientUnits="userSpaceOnUse" x1="822" y1="690.5" x2="1144" y2="690.5">
    <stop offset="4.504145e-02" style="stop-color:#000000" />
    <stop offset="0.7001" style="stop-color:#000000" />
    <stop offset="1" style="stop-color:#000000;stop-opacity:0.3" />
  </linearGradient>
  <polygon class="st0" points="1144,623 982,758 822,721 " />
  <linearGradient id="SVGID_2_" gradientUnits="userSpaceOnUse" x1="861.8408" y1="561.5" x2="1194.8408" y2="561.5">
    <stop offset="0" style="stop-color:#000000;stop-opacity:0" />
    <stop offset="1" style="stop-color:#000000" />
  </linearGradient>
  <polygon class="st1" points="1144,623 950,522 1283,500 " />
  <linearGradient id="SVGID_3_" gradientUnits="userSpaceOnUse" x1="748.0317" y1="621.5" x2="1070.0317" y2="621.5">
    <stop offset="0" style="stop-color:#000000;stop-opacity:0" />
    <stop offset="1" style="stop-color:#000000" />
  </linearGradient>
  <polygon class="st2" points="1144,623 950,522 822,721 " />
  <linearGradient id="SVGID_4_" gradientUnits="userSpaceOnUse" x1="1144" y1="561.5" x2="1488" y2="561.5">
    <stop offset="4.504145e-02" style="stop-color:#000000" />
    <stop offset="0.7001" style="stop-color:#000000" />
    <stop offset="1" style="stop-color:#000000;stop-opacity:0.3" />
  </linearGradient>
  <polygon class="st3" points="1144,623 1488,585 1283,500 " />
  <linearGradient id="SVGID_5_" gradientUnits="userSpaceOnUse" x1="1360.967" y1="616.3923" x2="1567.0514" y2="243.8405">
    <stop offset="4.504145e-02" style="stop-color:#000000" />
    <stop offset="1" style="stop-color:#000000;stop-opacity:0.3" />
  </linearGradient>
  <polygon class="st4" points="1403,360 1602,438 1488,585 1283,500 " />
  <linearGradient id="SVGID_6_" gradientUnits="userSpaceOnUse" x1="1403" y1="380" x2="1909" y2="380">
    <stop offset="0" style="stop-color:#000000;stop-opacity:0.7" />
    <stop offset="1" style="stop-color:#000000;stop-opacity:0.3" />
  </linearGradient>
  <polygon class="st5" points="1403,360 1602,438 1909,392 1702,322 " />
  <linearGradient id="SVGID_7_" gradientUnits="userSpaceOnUse" x1="1393.0594" y1="277.7364" x2="1798.724" y2="202.0343">
    <stop offset="0" style="stop-color:#000000;stop-opacity:0.2" />
    <stop offset="7.822465e-02" style="stop-color:#231F20;stop-opacity:0.3" />
    <stop offset="0.5717" style="stop-color:#000000;stop-opacity:0.2" />
    <stop offset="1" style="stop-color:#000000;stop-opacity:0.1" />
  </linearGradient>
  <polygon class="st6" points="1403,360 1510,210 1794,101 1702,322 " />
  <linearGradient id="SVGID_8_" gradientUnits="userSpaceOnUse" x1="1111" y1="435.5" x2="1403" y2="435.5">
    <stop offset="0" style="stop-color:#000000;stop-opacity:0" />
    <stop offset="1" style="stop-color:#000000" />
  </linearGradient>
  <polygon class="st7" points="1111,511 1403,360 1283,500 " />
  <linearGradient id="SVGID_9_" gradientUnits="userSpaceOnUse" x1="1506.3602" y1="561.1264" x2="1904.0676" y2="423.1934">
    <stop offset="0.1025" style="stop-color:#000000;stop-opacity:0.1" />
    <stop offset="1" style="stop-color:#231F20;stop-opacity:0.7" />
  </linearGradient>
  <polygon class="st8" points="1818,543 1488,585 1602,438 1909,392 " />
  <linearGradient id="SVGID_10_" gradientUnits="userSpaceOnUse" x1="1524.1818" y1="635.0814" x2="1805.0311" y2="537.6772">
    <stop offset="0" style="stop-color:#231F20;stop-opacity:0.9408" />
    <stop offset="0.8274" style="stop-color:#000000;stop-opacity:0.1" />
  </linearGradient>
  <polygon class="st9" points="1818,543 1488,585 1705,635 " />
  <linearGradient id="SVGID_11_" gradientUnits="userSpaceOnUse" x1="1643.3787" y1="562.8076" x2="1402.1437" y2="805.6572">
    <stop offset="0.1942" style="stop-color:#231F20" />
    <stop offset="0.713" style="stop-color:#000000;stop-opacity:0.2" />
    <stop offset="0.8089" style="stop-color:#000000;stop-opacity:0" />
  </linearGradient>
  <polygon class="st10" points="1369,809 1488,585 1705,635 " />
  <linearGradient id="SVGID_12_" gradientUnits="userSpaceOnUse" x1="500.4393" y1="847.0734" x2="1346.6833" y2="813.0635">
    <stop offset="0.1942" style="stop-color:#231F20" />
    <stop offset="0.713" style="stop-color:#000000;stop-opacity:0.2" />
    <stop offset="0.8089" style="stop-color:#000000;stop-opacity:0" />
  </linearGradient>
  <polygon class="st11" points="1369,809 982,758 1192,889 " />
  <linearGradient id="SVGID_13_" gradientUnits="userSpaceOnUse" x1="543.9567" y1="948.8365" x2="514.9066" y2="584.2057">
    <stop offset="0.2341" style="stop-color:#000000;stop-opacity:0" />
    <stop offset="1" style="stop-color:#000000" />
  </linearGradient>
  <polygon class="st12" points="679,697 548,898 375,775 " />
  <linearGradient id="SVGID_14_" gradientUnits="userSpaceOnUse" x1="248.5713" y1="855.5571" x2="695.6133" y2="584.6299">
    <stop offset="0.1882" style="stop-color:#000000;stop-opacity:0" />
    <stop offset="1" style="stop-color:#000000" />
  </linearGradient>
  <polygon class="st13" points="679,697 513,593 375,775 " />
  <linearGradient id="SVGID_15_" gradientUnits="userSpaceOnUse" x1="581.8818" y1="653.5563" x2="1021.2873" y2="387.2572">
    <stop offset="0.1882" style="stop-color:#000000;stop-opacity:0" />
    <stop offset="1" style="stop-color:#000000" />
  </linearGradient>
  <polygon class="st14" points="679,697 513,593 791,482 " />
  <linearGradient id="SVGID_16_" gradientUnits="userSpaceOnUse" x1="342.8354" y1="679.6542" x2="782.2408" y2="413.3551">
    <stop offset="0.1882" style="stop-color:#000000;stop-opacity:0" />
    <stop offset="1" style="stop-color:#000000" />
  </linearGradient>
  <polygon class="st15" points="641,425 513,593 791,482 " />
  <linearGradient id="SVGID_17_" gradientUnits="userSpaceOnUse" x1="1129.4766" y1="479.8202" x2="725.5521" y2="460.9843">
    <stop offset="0.1882" style="stop-color:#000000;stop-opacity:0" />
    <stop offset="1" style="stop-color:#000000" />
  </linearGradient>
  <polygon class="st16" points="641,425 979,457 1111,511 791,482 " />
  <linearGradient id="SVGID_18_" gradientUnits="userSpaceOnUse" x1="975.8066" y1="425.4811" x2="921.1588" y2="581.9324">
    <stop offset="0.1882" style="stop-color:#000000;stop-opacity:0" />
    <stop offset="1" style="stop-color:#000000" />
  </linearGradient>
  <polygon class="st17" points="950,522 1111,511 791,482 " />
  <linearGradient id="SVGID_19_" gradientUnits="userSpaceOnUse" x1="1687.5897" y1="542.4778" x2="1892.3606" y2="220.3648">
    <stop offset="0" style="stop-color:#000000;stop-opacity:0.7" />
    <stop offset="1" style="stop-color:#000000;stop-opacity:0" />
  </linearGradient>
  <polygon class="st18" points="1995,245 1909,392 1702,322 " />
  <linearGradient id="SVGID_20_" gradientUnits="userSpaceOnUse" x1="1752.201" y1="314.7852" x2="1890.1714" y2="177.313">
    <stop offset="0" style="stop-color:#000000;stop-opacity:0.7" />
    <stop offset="1" style="stop-color:#000000;stop-opacity:0" />
  </linearGradient>
  <polygon class="st19" points="1995,245 1794,101 1702,322 " />
  <linearGradient id="SVGID_21_" gradientUnits="userSpaceOnUse" x1="2090.885" y1="456.8485" x2="2065.4443" y2="233.9065">
    <stop offset="0" style="stop-color:#000000;stop-opacity:0.9" />
    <stop offset="0.9738" style="stop-color:#231F20;stop-opacity:0.4" />
  </linearGradient>
  <polygon class="st20" points="1995,245 1909,392 2238,217 " />
  <linearGradient id="SVGID_22_" gradientUnits="userSpaceOnUse" x1="1995.8694" y1="191.5823" x2="2228.8503" y2="156.968">
    <stop offset="0" style="stop-color:#000000;stop-opacity:0.9" />
    <stop offset="1" style="stop-color:#231F20;stop-opacity:0.4" />
  </linearGradient>
  <polygon class="st21" points="1995,245 2226,96 2238,217 " />
  <linearGradient id="SVGID_23_" gradientUnits="userSpaceOnUse" x1="2251.8616" y1="53.8141" x2="1969.005" y2="246.1566">
    <stop offset="0" style="stop-color:#000000;stop-opacity:0.9" />
    <stop offset="1" style="stop-color:#231F20;stop-opacity:0.4" />
  </linearGradient>
  <polygon class="st22" points="1995,245 2226,96 2136,108 " />
  <linearGradient id="SVGID_24_" gradientUnits="userSpaceOnUse" x1="1342.8107" y1="195.3771" x2="1781.0834" y2="113.5899">
    <stop offset="0" style="stop-color:#000000" />
    <stop offset="1" style="stop-color:#000000;stop-opacity:0.3" />
  </linearGradient>
  <polygon class="st23" points="1341,217 1510,210 1794,101 1603,101 " />
  <linearGradient id="SVGID_25_" gradientUnits="userSpaceOnUse" x1="1249.9601" y1="119.4179" x2="1417.6886" y2="295.1573">
    <stop offset="0" style="stop-color:#000000" />
    <stop offset="1" style="stop-color:#000000;stop-opacity:0.3" />
  </linearGradient>
  <polygon class="st24" points="1341,217 1222,272 1510,210 " />
  <linearGradient id="SVGID_26_" gradientUnits="userSpaceOnUse" x1="1309.2263" y1="337.2956" x2="1399.7964" y2="183.6769">
    <stop offset="0" style="stop-color:#000000" />
    <stop offset="1" style="stop-color:#000000;stop-opacity:0.4" />
  </linearGradient>
  <polygon class="st25" points="1403,360 1510,210 1222,272 " />
  <linearGradient id="SVGID_27_" gradientUnits="userSpaceOnUse" x1="1381.703" y1="221.3533" x2="1222.6475" y2="438.9293">
    <stop offset="0" style="stop-color:#000000" />
    <stop offset="1" style="stop-color:#000000;stop-opacity:0.4" />
  </linearGradient>
  <polygon class="st26" points="1403,360 1111,511 1222,272 " />
  <linearGradient id="SVGID_28_" gradientUnits="userSpaceOnUse" x1="1266.0161" y1="181.6667" x2="1107.7396" y2="398.177">
    <stop offset="0" style="stop-color:#000000;stop-opacity:0.4" />
    <stop offset="1" style="stop-color:#000000" />
  </linearGradient>
  <polygon class="st27" points="979,457 1111,511 1222,272 " />
  <linearGradient id="SVGID_29_" gradientUnits="userSpaceOnUse" x1="1027.8331" y1="39.5401" x2="1263.6808" y2="286.652">
    <stop offset="0" style="stop-color:#000000" />
    <stop offset="1" style="stop-color:#000000;stop-opacity:0.3" />
  </linearGradient>
  <polygon class="st28" points="1341,217 1222,272 1041,204 1176,210 " />
  <linearGradient id="SVGID_30_" gradientUnits="userSpaceOnUse" x1="1303.658" y1="219.5557" x2="1611.2411" y2="-9.964">
    <stop offset="0" style="stop-color:#000000" />
    <stop offset="1" style="stop-color:#000000;stop-opacity:0.3" />
  </linearGradient>
  <polygon class="st29" points="1341,217 1176,210 1469,101 1603,101 " />
  <linearGradient id="SVGID_31_" gradientUnits="userSpaceOnUse" x1="1216.0603" y1="34.259" x2="1289.3031" y2="217.8676">
    <stop offset="0" style="stop-color:#000000" />
    <stop offset="1" style="stop-color:#000000;stop-opacity:0.3" />
  </linearGradient>
  <polygon class="st30" points="1022.8,117 1176.8,210 1469,101 1285,0 " />
  <linearGradient id="SVGID_32_" gradientUnits="userSpaceOnUse" x1="895.5283" y1="136.0338" x2="1209.4933" y2="192.5275">
    <stop offset="0" style="stop-color:#000000" />
    <stop offset="1" style="stop-color:#000000;stop-opacity:0" />
  </linearGradient>
  <polygon class="st31" points="1022,117 1176,210 1041,204 868,99 " />
  <linearGradient id="SVGID_33_" gradientUnits="userSpaceOnUse" x1="994.3273" y1="389.7614" x2="705.0314" y2="376.2709">
    <stop offset="0.1882" style="stop-color:#000000;stop-opacity:0" />
    <stop offset="1" style="stop-color:#000000" />
  </linearGradient>
  <polygon class="st32" points="641,425 979,457 784,312 " />
  <linearGradient id="SVGID_34_" gradientUnits="userSpaceOnUse" x1="892.7262" y1="368.3557" x2="1102.6069" y2="66.5272">
    <stop offset="0.1882" style="stop-color:#000000;stop-opacity:0" />
    <stop offset="1" style="stop-color:#000000" />
  </linearGradient>
  <polygon class="st33" points="1041,204 979,457 784,312 " />
  <linearGradient id="SVGID_35_" gradientUnits="userSpaceOnUse" x1="1182.8506" y1="376.2318" x2="848.8822" y2="287.8724">
    <stop offset="0.1882" style="stop-color:#000000;stop-opacity:0" />
    <stop offset="1" style="stop-color:#000000" />
  </linearGradient>
  <polygon class="st34" points="1041,204 979,457 1222,272 " />
  <linearGradient id="SVGID_36_" gradientUnits="userSpaceOnUse" x1="764.1147" y1="73.0265" x2="952.6167" y2="308.0085">
    <stop offset="0" style="stop-color:#000000;stop-opacity:0" />
    <stop offset="1" style="stop-color:#000000" />
  </linearGradient>
  <polygon class="st35" points="1041,204 868,99 784,312 " />
  <linearGradient id="SVGID_37_" gradientUnits="userSpaceOnUse" x1="654.4255" y1="273.6781" x2="924.2641" y2="137.2429">
    <stop offset="0" style="stop-color:#000000;stop-opacity:0" />
    <stop offset="1" style="stop-color:#000000" />
  </linearGradient>
  <polygon class="st36" points="753,120 868,99 784,312 651,293 " />
  <linearGradient id="SVGID_38_" gradientUnits="userSpaceOnUse" x1="591.069" y1="510.0744" x2="703.9208" y2="324.7284">
    <stop offset="0" style="stop-color:#000000;stop-opacity:0" />
    <stop offset="0.4046" style="stop-color:#231F20;stop-opacity:5.614238e-02" />
    <stop offset="1" style="stop-color:#000000" />
  </linearGradient>
  <polygon class="st37" points="535.8,482 641,425 784,312 651,293 " />
  <linearGradient id="SVGID_39_" gradientUnits="userSpaceOnUse" x1="446.6367" y1="465.1571" x2="592.6762" y2="345.8824">
    <stop offset="0" style="stop-color:#000000;stop-opacity:0" />
    <stop offset="0.4046" style="stop-color:#231F20;stop-opacity:5.614238e-02" />
    <stop offset="1" style="stop-color:#000000" />
  </linearGradient>
  <polygon class="st38" points="536,482 425,393 651,293 " />
  <linearGradient id="SVGID_40_" gradientUnits="userSpaceOnUse" x1="496.0352" y1="286.4388" x2="606.2334" y2="434.9667">
    <stop offset="0.2697" style="stop-color:#000000;stop-opacity:0.1" />
    <stop offset="1" style="stop-color:#000000" />
  </linearGradient>
  <polygon class="st39" points="557,298 425,393 651,293 " />
  <linearGradient id="SVGID_41_" gradientUnits="userSpaceOnUse" x1="341" y1="789.9406" x2="341" y2="293.5768">
    <stop offset="0.2697" style="stop-color:#000000;stop-opacity:0.1" />
    <stop offset="1" style="stop-color:#000000" />
  </linearGradient>
  <polygon class="st40" points="557,298 425,393 125,391 285,309 " />
  <linearGradient id="SVGID_42_" gradientUnits="userSpaceOnUse" x1="424.9829" y1="498.2986" x2="415.2029" y2="19.9748">
    <stop offset="0.2697" style="stop-color:#000000;stop-opacity:0.1" />
    <stop offset="1" style="stop-color:#000000" />
  </linearGradient>
  <polygon class="st41" points="557,298 394,155 285,309 " />
  <linearGradient id="SVGID_43_" gradientUnits="userSpaceOnUse" x1="702.7305" y1="631.347" x2="1076.2699" y2="1043.6239">
    <stop offset="0.2341" style="stop-color:#000000;stop-opacity:0" />
    <stop offset="1" style="stop-color:#000000" />
  </linearGradient>
  <polygon class="st42" points="679,697 675,983 822,721 950,522 " />
  <linearGradient id="SVGID_44_" gradientUnits="userSpaceOnUse" x1="537.5123" y1="1056.3826" x2="519.5781" y2="858.4423">
    <stop offset="0.2341" style="stop-color:#000000;stop-opacity:0" />
    <stop offset="1" style="stop-color:#000000" />
  </linearGradient>
  <polygon class="st43" points="343.3,1046.7 548,898 675,983 727.3,1018 " />
  <linearGradient id="SVGID_45_" gradientUnits="userSpaceOnUse" x1="1577.6377" y1="588.7896" x2="837.9554" y2="942.6375">
    <stop offset="0.1942" style="stop-color:#231F20" />
    <stop offset="0.713" style="stop-color:#000000;stop-opacity:0.2" />
    <stop offset="0.8089" style="stop-color:#000000;stop-opacity:0" />
  </linearGradient>
  <polygon class="st44" points="855,989 982,758 1192,889 " />
  <linearGradient id="SVGID_46_" gradientUnits="userSpaceOnUse" x1="145.0642" y1="811.5026" x2="569.8923" y2="554.038">
    <stop offset="0.1882" style="stop-color:#000000;stop-opacity:0" />
    <stop offset="1" style="stop-color:#000000" />
  </linearGradient>
  <polygon class="st45" points="392,559 513,593 375,775 241,695 " />
  <linearGradient id="SVGID_47_" gradientUnits="userSpaceOnUse" x1="412.4675" y1="713.1014" x2="230.9322" y2="569.0428">
    <stop offset="0.1882" style="stop-color:#000000;stop-opacity:0" />
    <stop offset="1" style="stop-color:#000000" />
  </linearGradient>
  <polygon class="st46" points="392,559 100,603 241,695 " />
  <linearGradient id="SVGID_48_" gradientUnits="userSpaceOnUse" x1="459.8384" y1="570.9848" x2="659.1281" y2="434.7868">
    <stop offset="0.1882" style="stop-color:#000000;stop-opacity:0" />
    <stop offset="1" style="stop-color:#000000" />
  </linearGradient>
  <polygon class="st47" points="392,559 513,593 641,425 536,482 " />
  <linearGradient id="SVGID_49_" gradientUnits="userSpaceOnUse" x1="127.7743" y1="844.2247" x2="456.5964" y2="644.944">
    <stop offset="0.1882" style="stop-color:#000000;stop-opacity:0" />
    <stop offset="1" style="stop-color:#000000" />
  </linearGradient>
  <polygon class="st48" points="90,871 375,775 241,695 " />
  <linearGradient id="SVGID_50_" gradientUnits="userSpaceOnUse" x1="412.4675" y1="713.1014" x2="230.9322" y2="569.0428">
    <stop offset="0.1882" style="stop-color:#000000;stop-opacity:0" />
    <stop offset="1" style="stop-color:#000000" />
  </linearGradient>
  <polygon class="st49" points="392,559 100,603 306,542 " />
  <linearGradient id="SVGID_51_" gradientUnits="userSpaceOnUse" x1="169.466" y1="492.5047" x2="135.3116" y2="614.429">
    <stop offset="0.1882" style="stop-color:#000000;stop-opacity:0" />
    <stop offset="1" style="stop-color:#000000" />
  </linearGradient>
  <polygon class="st50" points="1,557 100,603 306,542 " />
  <linearGradient id="SVGID_52_" gradientUnits="userSpaceOnUse" x1="54.7922" y1="564.6776" x2="32.3499" y2="644.7921">
    <stop offset="0.1882" style="stop-color:#000000;stop-opacity:0" />
    <stop offset="1" style="stop-color:#000000" />
  </linearGradient>
  <polygon class="st51" points="1,557 100,603 1,635 " />
  <linearGradient id="SVGID_53_" gradientUnits="userSpaceOnUse" x1="262.0579" y1="600.7335" x2="112.8156" y2="505.7159">
    <stop offset="0.1882" style="stop-color:#000000;stop-opacity:0" />
    <stop offset="1" style="stop-color:#000000" />
  </linearGradient>
  <polygon class="st52" points="1,557 125,391 306,542 " />
  <linearGradient id="SVGID_54_" gradientUnits="userSpaceOnUse" x1="259.9356" y1="562.923" x2="272.8811" y2="416.0417">
    <stop offset="0.1882" style="stop-color:#000000;stop-opacity:0" />
    <stop offset="1" style="stop-color:#000000" />
  </linearGradient>
  <polygon class="st53" points="425,393 125,391 306,542 " />
  <linearGradient id="SVGID_55_" gradientUnits="userSpaceOnUse" x1="278.3219" y1="602.6248" x2="410.7533" y2="494.4642">
    <stop offset="0" style="stop-color:#000000;stop-opacity:0" />
    <stop offset="0.4046" style="stop-color:#231F20;stop-opacity:5.614238e-02" />
    <stop offset="1" style="stop-color:#000000" />
  </linearGradient>
  <polygon class="st54" points="536,482 425,393 306,542 " />
  <linearGradient id="SVGID_56_" gradientUnits="userSpaceOnUse" x1="291.0132" y1="618.1641" x2="423.4447" y2="510.0034">
    <stop offset="0" style="stop-color:#000000;stop-opacity:0" />
    <stop offset="0.4046" style="stop-color:#231F20;stop-opacity:5.614238e-02" />
    <stop offset="1" style="stop-color:#000000" />
  </linearGradient>
  <polygon class="st55" points="536,482 392,559 306,542 " />
  <linearGradient id="SVGID_57_" gradientUnits="userSpaceOnUse" x1="581.9543" y1="322.9668" x2="744.8826" y2="119.9741">
    <stop offset="0" style="stop-color:#000000;stop-opacity:0" />
    <stop offset="1" style="stop-color:#000000" />
  </linearGradient>
  <polygon class="st56" points="753,120 557,298 651,293 " />
  <linearGradient id="SVGID_58_" gradientUnits="userSpaceOnUse" x1="566.4925" y1="56.3747" x2="583.9355" y2="258.3111">
    <stop offset="0" style="stop-color:#000000;stop-opacity:0" />
    <stop offset="1" style="stop-color:#000000" />
  </linearGradient>
  <polygon class="st57" points="753,120 557,298 394,155 " />
  <linearGradient id="SVGID_59_" gradientUnits="userSpaceOnUse" x1="143" y1="539.2308" x2="143" y2="296.6713">
    <stop offset="0.2697" style="stop-color:#000000;stop-opacity:0.1" />
    <stop offset="1" style="stop-color:#000000" />
  </linearGradient>
  <polygon class="st58" points="1,318 125,391 285,309 " />
  <linearGradient id="SVGID_60_" gradientUnits="userSpaceOnUse" x1="143" y1="413.8077" x2="143" y2="257.0315">
    <stop offset="0.2751" style="stop-color:#000000;stop-opacity:0.9" />
    <stop offset="1" style="stop-color:#000000;stop-opacity:0.1" />
  </linearGradient>
  <polygon class="st59" points="1,318 155,265 285,309 " />
  <linearGradient id="SVGID_61_" gradientUnits="userSpaceOnUse" x1="1610.9154" y1="654.9396" x2="2009.6666" y2="516.6446">
    <stop offset="0" style="stop-color:#231F20;stop-opacity:0.9408" />
    <stop offset="0.8274" style="stop-color:#000000;stop-opacity:0.1" />
  </linearGradient>
  <polygon class="st60" points="1818,543 2058,540 1705,635 " />
  <linearGradient id="SVGID_62_" gradientUnits="userSpaceOnUse" x1="1878.4178" y1="580.9222" x2="1960.7841" y2="756.7039">
    <stop offset="0" style="stop-color:#231F20;stop-opacity:0.9408" />
    <stop offset="0.8274" style="stop-color:#000000;stop-opacity:0.1" />
  </linearGradient>
  <polygon class="st61" points="1956,720 2058,540 1705,635 " />
  <linearGradient id="SVGID_63_" gradientUnits="userSpaceOnUse" x1="2384.0305" y1="599.4268" x2="1956.0304" y2="824.4268">
    <stop offset="0" style="stop-color:#231F20;stop-opacity:0.9408" />
    <stop offset="0.8274" style="stop-color:#000000;stop-opacity:0.1" />
  </linearGradient>
  <polygon class="st62" points="1956,720 2108,781 1971,921 " />
  <linearGradient id="SVGID_64_" gradientUnits="userSpaceOnUse" x1="1646.8259" y1="641.3466" x2="1662.6355" y2="765.5645">
    <stop offset="0" style="stop-color:#231F20;stop-opacity:0.9408" />
    <stop offset="0.8274" style="stop-color:#000000;stop-opacity:0.1" />
  </linearGradient>
  <polygon class="st63" points="1956,720 1369,809 1705,635 " />
  <linearGradient id="SVGID_65_" gradientUnits="userSpaceOnUse" x1="2279.3794" y1="106.1805" x2="2182.5154" y2="394.2455">
    <stop offset="0" style="stop-color:#231F20;stop-opacity:0.9408" />
    <stop offset="0.8274" style="stop-color:#000000;stop-opacity:0.1" />
  </linearGradient>
  <polygon class="st64" points="2208,543 2058,540 2238,217 " />
  <linearGradient id="SVGID_66_" gradientUnits="userSpaceOnUse" x1="79.7857" y1="445.8876" x2="16.3589" y2="280.053">
    <stop offset="0.2697" style="stop-color:#000000;stop-opacity:0.1" />
    <stop offset="1" style="stop-color:#000000" />
  </linearGradient>
  <polygon class="st65" points="1,318 125,391 1,413 " />
  <linearGradient id="SVGID_67_" gradientUnits="userSpaceOnUse" x1="53.3782" y1="506.7083" x2="71.0549" y2="314.3434">
    <stop offset="0.2697" style="stop-color:#000000;stop-opacity:0.1" />
    <stop offset="1" style="stop-color:#000000" />
  </linearGradient>
  <polygon class="st66" points="1,557 125,391 1,413 " />
  <linearGradient id="SVGID_68_" gradientUnits="userSpaceOnUse" x1="219.4563" y1="992.8155" x2="-25.8771" y2="902.8155">
    <stop offset="0.1882" style="stop-color:#000000;stop-opacity:0" />
    <stop offset="1" style="stop-color:#000000" />
  </linearGradient>
  <polygon class="st67" points="90,871 245,989 1,987 " />
  <linearGradient id="SVGID_69_" gradientUnits="userSpaceOnUse" x1="-7.615" y1="893.59" x2="76.4976" y2="949.6651">
    <stop offset="0.1882" style="stop-color:#000000;stop-opacity:0" />
    <stop offset="1" style="stop-color:#000000" />
  </linearGradient>
  <polygon class="st68" points="90,871 1,880 1,987 " />
  <linearGradient id="SVGID_70_" gradientUnits="userSpaceOnUse" x1="186.7201" y1="729.4057" x2="-134.4218" y2="757.9183">
    <stop offset="0.1882" style="stop-color:#000000;stop-opacity:0" />
    <stop offset="1" style="stop-color:#000000" />
  </linearGradient>
  <polygon class="st69" points="1,880 90,871 241,695 100,603 1,635 " />
  <linearGradient id="SVGID_71_" gradientUnits="userSpaceOnUse" x1="565.9006" y1="49.5229" x2="575.8727" y2="164.9692">
    <stop offset="0" style="stop-color:#000000;stop-opacity:0" />
    <stop offset="1" style="stop-color:#000000" />
  </linearGradient>
  <polygon class="st70" points="753,120 613,44 394,155 " />
  <linearGradient id="SVGID_72_" gradientUnits="userSpaceOnUse" x1="721.3997" y1="16.5561" x2="799.1997" y2="79.0622">
    <stop offset="0" style="stop-color:#000000;stop-opacity:0" />
    <stop offset="1" style="stop-color:#231F20" />
  </linearGradient>
  <polygon class="st71" points="753,120 613,44 867,19 " />
  <linearGradient id="SVGID_73_" gradientUnits="userSpaceOnUse" x1="881.0657" y1="21.9854" x2="887.7528" y2="122.292">
    <stop offset="0" style="stop-color:#000000;stop-opacity:0" />
    <stop offset="1" style="stop-color:#231F20" />
  </linearGradient>
  <polygon class="st72" points="753,120 868,99 1022,117 867,19 " />
  <linearGradient id="SVGID_74_" gradientUnits="userSpaceOnUse" x1="561.8676" y1="2.8322" x2="571.8397" y2="118.2785">
    <stop offset="0" style="stop-color:#000000;stop-opacity:0" />
    <stop offset="1" style="stop-color:#000000" />
  </linearGradient>
  <polygon class="st73" points="753,120 613,44 394,155 " />
  <linearGradient id="SVGID_75_" gradientUnits="userSpaceOnUse" x1="1112.7133" y1="-32.2874" x2="989.7661" y2="107.6524">
    <stop offset="0" style="stop-color:#000000;stop-opacity:0" />
    <stop offset="1" style="stop-color:#231F20" />
  </linearGradient>
  <polygon class="st74" points="1285,0 1022,117 867,19 " />
  <linearGradient id="SVGID_76_" gradientUnits="userSpaceOnUse" x1="467.3911" y1="150.7405" x2="451.9791" y2="86.6067">
    <stop offset="0" style="stop-color:#000000;stop-opacity:0" />
    <stop offset="1" style="stop-color:#000000" />
  </linearGradient>
  <polygon class="st75" points="290.7,128 613,44 394,155 " />
  <linearGradient id="SVGID_77_" gradientUnits="userSpaceOnUse" x1="426.3544" y1="-19.6218" x2="453.8931" y2="94.5385">
    <stop offset="0" style="stop-color:#000000;stop-opacity:0" />
    <stop offset="1" style="stop-color:#000000" />
  </linearGradient>
  <polygon class="st76" points="290.7,128 613,44 403,15 " />
  <linearGradient id="SVGID_78_" gradientUnits="userSpaceOnUse" x1="481.8185" y1="-90.0933" x2="206.8473" y2="96.5477">
    <stop offset="0" style="stop-color:#000000;stop-opacity:0" />
    <stop offset="1" style="stop-color:#000000" />
  </linearGradient>
  <polygon class="st77" points="290.7,128 160,40 403,15 " />
  <linearGradient id="SVGID_79_" gradientUnits="userSpaceOnUse" x1="158.4778" y1="300.5461" x2="154.4778" y2="38.0461">
    <stop offset="0.2697" style="stop-color:#000000;stop-opacity:0.1" />
    <stop offset="1" style="stop-color:#000000" />
  </linearGradient>
  <polygon class="st78" points="290.7,128 160,40 21,126 " />
  <linearGradient id="SVGID_80_" gradientUnits="userSpaceOnUse" x1="152.5165" y1="271.4659" x2="157.0165" y2="75.4659">
    <stop offset="0" style="stop-color:#000000;stop-opacity:0.1" />
    <stop offset="1" style="stop-color:#231F20" />
  </linearGradient>
  <polygon class="st79" points="290.7,128 155,265 21,126 " />
</svg>