<svg xmlns="http://www.w3.org/2000/svg" viewBox="0 0 1366 685"><filter id="b"><feGaussianBlur stdDeviation="12" /></filter><path fill="#7fa0bd" d="M0 0h1366v683H0z"/><g filter="url(#b)" transform="translate(2.7 2.7) scale(5.33594)" fill-opacity=".5"><ellipse fill="#260002" rx="1" ry="1" transform="matrix(-2.34186 -23.27705 80.6201 -8.11104 132 63.7)"/><ellipse fill="#000074" rx="1" ry="1" transform="matrix(20.57462 -3.14836 1.73094 11.31173 79.6 49.2)"/><ellipse fill="#a4cff1" cx="105" cy="15" rx="225" ry="30"/><path fill="#3c0d22" d="M88 110l127-69L68 66z"/><path fill="#9bd9f9" d="M169 64h87v64h-87z"/><ellipse fill="#93cce9" rx="1" ry="1" transform="matrix(-28.86994 21.51899 -94.58372 -126.8938 35 91.4)"/><path fill="#abe9ff" d="M124.5 82l42.6 14.6-15.6 45.4-42.6-14.6z"/><path fill="#01144a" d="M102 47L78 33 25 79z"/><ellipse fill="#120000" cx="148" cy="71" rx="21" ry="17"/><ellipse fill="#e2607a" rx="1" ry="1" transform="rotate(-107.9 76 -4.6) scale(15.1861 13.19728)"/><path fill="#27002a" d="M164 38h48v19h-48z"/><path fill="#90cee2" d="M148.7 37.7l48.1 37.5-5.5 7.1-48.1-37.5z"/></g></svg>