<svg xmlns="http://www.w3.org/2000/svg" viewBox="0 0 785 394"><filter id="c"><feGaussianBlur stdDeviation="55" /></filter><path fill="#80a0be" d="M0 0h785v392H0z"/><g filter='url(#c)' fill-opacity='.5'><ellipse fill="#250000" fill-opacity=".5" rx="1" ry="1" transform="rotate(-8 1628.6 -2891.6) scale(243.06724 68.93162)"/><ellipse fill="#2a063e" fill-opacity=".5" rx="1" ry="1" transform="rotate(-27.2 583.7 -447.1) scale(67.79592 119.79333)"/><path fill="#9cd9f9" fill-opacity=".5" d="M522.8 204h263.7v190H522.8z"/><ellipse fill="#aedcf9" fill-opacity=".5" rx="1" ry="1" transform="rotate(171.3 128 31.4) scale(765.31187 73.51932)"/><ellipse fill="#0d0000" fill-opacity=".5" rx="1" ry="1" transform="matrix(73.85138 35.09033 -21.14991 44.51227 448 217)"/><ellipse fill="#92d0f1" fill-opacity=".5" rx="1" ry="1" transform="matrix(-83.58607 100.47086 -169.98235 -141.4157 115.2 341.8)"/><ellipse fill="#a9e5ff" fill-opacity=".5" rx="1" ry="1" transform="matrix(49.04557 70.11703 -111.41196 77.93061 421.4 378.7)"/><ellipse fill="#a3c9d8" fill-opacity=".5" rx="1" ry="1" transform="matrix(-16.61275 61.99961 -101.08583 -27.08587 412.9 89.8)"/><path fill="#0a255c" fill-opacity=".5" d="M242.4 103l39.7 21.4 25.4 42.2-223.8 75.7z"/><ellipse fill="#de5768" fill-opacity=".5" rx="1" ry="1" transform="rotate(-28.4 565.3 -517.2) scale(43.99534 47.80034)"/><ellipse fill="#9cd5f8" fill-opacity=".5" rx="1" ry="1" transform="matrix(-37.59834 71.73993 -105.73207 -55.41335 752 122)"/><path fill="#140000" fill-opacity=".5" d="M501.4 133.4h150.2v39.9H501.4z"/></g></svg>