<svg xmlns="http://www.w3.org/2000/svg" viewBox="0 0 375 188"><filter id="b"><feGaussianBlur stdDeviation="12" /></filter><path fill="#809fbe" d="M0 0h375v187H0z"/><g filter="url(#b)" transform="translate(.7 .7) scale(1.46484)" fill-opacity=".5"><path fill="#140000" d="M223 44L92 113 55 47z"/><ellipse fill="#100000" rx="1" ry="1" transform="matrix(6.39928 -14.78787 19.25626 8.33293 149 72.2)"/><ellipse fill="#97d4f6" rx="1" ry="1" transform="matrix(253.72168 -25.50114 2.46729 24.5481 208.4 104.3)"/><ellipse fill="#aedbf9" rx="1" ry="1" transform="matrix(3.3711 24.01586 -247.79477 34.78297 99.2 11)"/><ellipse fill="#19004d" cx="79" cy="61" rx="21" ry="26"/><path fill="#20000e" d="M156.7 48.8L171 35.9l44.7 13-9.7 18.7z"/><ellipse fill="#96ccf1" cx="244" cy="50" rx="31" ry="116"/><ellipse fill="#e75167" cx="103" cy="66" rx="14" ry="16"/><ellipse fill="#98d4fa" rx="1" ry="1" transform="matrix(-25.47474 -6.77133 17.36864 -65.34342 0 103.6)"/><path fill="#4b3b37" d="M102 111L32 55l101 20z"/><path fill="#9cdeff" d="M221 79l-42 1-20-27z"/><ellipse fill="#00189c" rx="1" ry="1" transform="rotate(79.3 9 72) scale(13.16721 16.35959)"/></g></svg>
