<svg xmlns="http://www.w3.org/2000/svg" viewBox="0 0 375 77"><filter id="c"><feGaussianBlur stdDeviation="55" /></filter><path fill="#739cb7" d="M0 0h375v76H0z"/><g filter='url(#c)' fill-opacity='.5'><path fill="#000506" fill-opacity=".5" d="M286.4 16.8l-178.7 4.4 41 77.7z"/><ellipse fill="#a9dbff" fill-opacity=".5" rx="1" ry="1" transform="matrix(48.08832 14.70207 -66.14301 216.34405 323.4 55.9)"/><ellipse fill="#aeddff" fill-opacity=".5" rx="1" ry="1" transform="rotate(139.7 21 18.3) scale(193.26604 45.82229)"/><path fill="#b4e9ff" fill-opacity=".5" d="M332.7 98.9L251 74.3l-77.2-17.7 7.3 42.3z"/><path fill="#000900" fill-opacity=".5" d="M238.1 66.7l-16.7-37.4-20.8.9L180.1 55z"/><path fill="#001860" fill-opacity=".5" d="M116.9 24.2l18.3 40.6L158 16.3l-29-10z"/><ellipse fill="#00222d" fill-opacity=".5" rx="1" ry="1" transform="rotate(-163.5 129.2 -5.3) scale(30.5034 13.11064)"/><path fill="#acd0e6" fill-opacity=".5" d="M252.9 75.3l55-14L162.6 3.7l28.1-26.5z"/><path fill="#9ed2fb" fill-opacity=".5" d="M145.8 98.9l-35.2-57.2L5.1 91.6z"/><path fill="#494f40" fill-opacity=".5" d="M69.3 25l101 57.7L203 10.9 160.8 46z"/><path fill="#0088eb" fill-opacity=".5" d="M236.6 11l42.5 5.8-25-39.5z"/><ellipse fill="#bae0ff" fill-opacity=".5" rx="1" ry="1" transform="matrix(-29.6575 -1.4649 .88127 -17.8416 167 .7)"/></g></svg>
