<svg xmlns="http://www.w3.org/2000/svg" viewBox="0 0 375 77"><filter id="b"><feGaussianBlur stdDeviation="12" /></filter><path fill="#809ab7" d="M0 0h375v76H0z"/><g filter="url(#b)" transform="translate(.7 .7) scale(1.46484)" fill-opacity=".5"><ellipse fill="#380007" rx="1" ry="1" transform="rotate(11.7 -85.8 544.1) scale(38.10617 17.3129)"/><ellipse cx="174" cy="12" rx="16" ry="15"/><ellipse fill="#9edafb" cx="21" cy="9" rx="56" ry="225"/><ellipse fill="#9cddff" rx="1" ry="1" transform="matrix(47.37793 -163.3243 32.75141 9.5007 222.5 33)"/><path fill="#190733" d="M79.1 9.7l19.4-4.9L111 54.3l-19.4 4.9z"/><path fill="#853e29" d="M44.4 19l117.5 12.5-5.8 9.4-6.2 5z"/><path fill="#0e0000" d="M193.5 18.4L149.6 13l24.7 12.7L173-16z"/><path fill="#a4ecff" d="M239.9 67L125 53.8l-1.3 1.1 2.2-15.8z"/><path fill="#b7efff" d="M109 14l36-16-72-14z"/><path fill="#042c50" d="M109 13L51 37 92 3z"/><path fill="#c0669a" d="M156.1 39l15.4-44.7-24.3 22.8-19.5 4z"/><path fill="#cc5a63" d="M95.7 22.8l13.3-5.3 17.3 12.4-24 11.6z"/></g></svg>
