<svg xmlns="http://www.w3.org/2000/svg" viewBox="0 0 375 77"><filter id="b"><feGaussianBlur stdDeviation="12" /></filter><path fill="#7891ae" d="M0 0h375v76H0z"/><g filter="url(#b)" transform="translate(.7 .7) scale(1.46484)" fill-opacity=".5"><ellipse fill="#2a0000" rx="1" ry="1" transform="matrix(-2.93209 -17.59099 65.45436 -10.91001 130.7 23.8)"/><ellipse fill="#a5e4ff" rx="1" ry="1" transform="matrix(55.86616 -27.8112 52.7786 106.01979 19 44.3)"/><ellipse fill="#a4e6ff" rx="1" ry="1" transform="matrix(-35.01504 -9.03614 24.37188 -94.44101 224.8 24.9)"/><path fill="#140011" d="M94 67l58-46L83 5z"/><path fill="#c8ffff" d="M104 12.2l1-21 51 2.6-1 21z"/><path fill="#0a0000" d="M173.9-16l-17.1 33.6 23.5 6.3 12.8-8.1z"/><path fill="#a1daf9" d="M163.8 41.3L40 67l180.4-22.8-67.8-26.6z"/><ellipse fill="#6d0003" cx="145" cy="31" rx="13" ry="13"/><path fill="#030929" d="M89 4L51 38l56-25z"/><path fill="#a7dbff" d="M107.9-6.7l-43.3 27-8.5-13.6 43.3-27z"/><path fill="#735305" d="M100.8 32L57 18.6l-4.8 3.9L94 29.7z"/><path fill="#360000" d="M180-11.7l-30.5 26.5L162 20l29.1-.3z"/></g></svg>