<svg xmlns="http://www.w3.org/2000/svg" viewBox="0 0 375 77"><filter id="b"><feGaussianBlur stdDeviation="12" /></filter><path fill="#6f9cb0" d="M0 0h375v76H0z"/><g filter="url(#b)" transform="translate(.7 .7) scale(1.46484)" fill-opacity=".5"><ellipse fill="#001f00" rx="1" ry="1" transform="matrix(-4.13764 -17.9221 54.41695 -12.56314 135.5 25.8)"/><ellipse fill="#a9d4ff" rx="1" ry="1" transform="matrix(14.75685 29.70861 -94.45794 46.91911 222.2 36.8)"/><ellipse fill="#b0d9ff" rx="1" ry="1" transform="rotate(-66.4 21.4 -19) scale(165.72569 45.68984)"/><path fill="#00210d" d="M77 27.4L87-6.2l44.7 52.6 54-40.4z"/><path fill="#a9cae6" d="M151.5 32l9.3-48-83 19.6L217 33.3z"/><ellipse fill="#001002" rx="1" ry="1" transform="matrix(4.98813 13.41268 -9.72924 3.61827 180.9 14.5)"/><path fill="#003b22" d="M90 3l79 39L61 29z"/><path fill="#b4ddff" d="M196.5 65.4l-68.9-26.8-3.8.2-.7 28.2z"/><ellipse fill="#000a00" cx="149" cy="34" rx="10" ry="10"/><path fill="#08745e" d="M91 20h29v32H91z"/><path fill="#867539" d="M77 23L51 40l8-22z"/><ellipse fill="#97c4f3" cx="76" cy="48" rx="12" ry="21"/></g></svg>