<svg xmlns="http://www.w3.org/2000/svg" viewBox="0 0 375 77"><filter id="b"><feGaussianBlur stdDeviation="12" /></filter><path fill="#7a97b6" d="M0 0h375v76H0z"/><g filter="url(#b)" transform="translate(.7 .7) scale(1.46484)" fill-opacity=".5"><ellipse fill="#20000f" rx="1" ry="1" transform="rotate(5.2 -260 1286.5) scale(43.64846 18.31314)"/><path d="M149.3 19l38 9.5 3.4-16.9L175.3-16z"/><ellipse fill="#a3ddfc" cx="28" cy="51" rx="50" ry="121"/><ellipse fill="#a2dfff" rx="1" ry="1" transform="matrix(31.78991 13.9548 -68.61518 156.30974 218 42.8)"/><ellipse fill="#010032" rx="1" ry="1" transform="matrix(-13.64674 -36.11505 11.53298 -4.35795 102.2 40.2)"/><path fill="#aedeff" d="M121.4 19l38-35H75l36.2 34.4z"/><path fill="#b0f3ff" d="M123.8 50.3L118.4 67l89.4-8.2-82.3-19.2z"/><path fill="#645b14" d="M64.2 35.2l-8.4-16.4L87 27.3 44.5 37z"/><path fill="#3c0f01" d="M82.8 31l15.5 14.1 44.8-18.7 26.2 19z"/><ellipse fill="#001293" cx="91" cy="15" rx="14" ry="9"/><path fill="#1f0018" d="M156 9h36v11h-36z"/><ellipse fill="#765c00" rx="1" ry="1" transform="matrix(-1.21631 -1.5541 11.704 -9.16013 140.3 5.2)"/></g></svg>