<svg xmlns="http://www.w3.org/2000/svg" viewBox="0 0 375 77"><filter id="b"><feGaussianBlur stdDeviation="12" /></filter><path fill="#7b97b6" d="M0 0h375v76H0z"/><g filter="url(#b)" transform="translate(.7 .7) scale(1.46484)" fill-opacity=".5"><ellipse fill="#1f0000" rx="1" ry="1" transform="matrix(.56855 -17.69272 41.2851 1.32668 118.8 29.8)"/><path fill="#060000" d="M152.6 7.2l38.7 4.7-1.9 15-38.7-4.8z"/><ellipse fill="#a1e0ff" rx="1" ry="1" transform="matrix(-26.53256 65.963 -31.8275 -12.8021 221.6 33)"/><ellipse fill="#a6e2ff" rx="1" ry="1" transform="matrix(25.75457 26.91408 -109.10826 104.40767 38.3 0)"/><path fill="#1f0041" d="M74.3 14L96.1 3.8 117.7 50 95.9 60.2z"/><ellipse fill="#160000" rx="1" ry="1" transform="matrix(-7.412 10.8782 -13.20323 -8.99618 143.2 30.2)"/><ellipse fill="#b2f3ff" rx="1" ry="1" transform="matrix(-22.71082 -5.84085 1.9424 -7.55255 145 51)"/><path fill="#e55369" d="M111.7 41.9L95.1 30.7l11.2-16.6 16.6 11.2z"/><ellipse fill="#bcf1ff" cx="116" rx="23" ry="11"/><ellipse fill="#001490" rx="1" ry="1" transform="matrix(3.29885 -9.44233 11.87876 4.15006 93.8 15.7)"/><path fill="#6f5e01" d="M82 24l-16 5-15-13z"/><ellipse fill="#91cef3" rx="1" ry="1" transform="matrix(-2.6288 -12.31811 31.23837 -6.66654 58 48.4)"/></g></svg>