<svg xmlns="http://www.w3.org/2000/svg" viewBox="0 0 1366 768"><filter id="b"><feGaussianBlur stdDeviation="12" /></filter><path fill="#bd9a7c" d="M0 0h1366v763H0z"/><g filter="url(#b)" transform="translate(2.7 2.7) scale(5.33594)" fill-opacity=".5"><path fill="#00000b" d="M4 158l-20-65 247 49z"/><ellipse fill="#ffffe7" rx="1" ry="1" transform="matrix(-212.3436 -4.10913 .58133 -30.04102 151.2 15.3)"/><ellipse fill="#ffcc3f" rx="1" ry="1" transform="matrix(-1.62015 23.39318 -233.64405 -16.18157 139.5 54.5)"/><ellipse fill="#7d447b" rx="1" ry="1" transform="matrix(-131.71464 -9.07926 1.8499 -26.8369 191 121.4)"/><ellipse fill="#001" rx="1" ry="1" transform="rotate(20.8 -368.6 165.5) scale(142.03973 32.36899)"/><ellipse fill="#d4f9e7" rx="1" ry="1" transform="matrix(-1.54758 24.59802 -185.03667 -11.64152 107.4 2.5)"/><path d="M166 124l67 34-152-12z"/><ellipse fill="#ed737a" cx="79" cy="81" rx="255" ry="17"/><path fill="#b685a3" d="M-16 87l125-2 18 54z"/><ellipse fill="#000e22" rx="1" ry="1" transform="matrix(-.46699 -9.34401 24.4652 -1.2227 252 142)"/><ellipse fill="#f5e487" cx="145" cy="35" rx="250" ry="16"/><ellipse fill="#9c6b7f" cx="123" cy="113" rx="62" ry="17"/></g></svg>
