<svg xmlns="http://www.w3.org/2000/svg" viewBox="0 0 2868 589"><filter id="b"><feGaussianBlur stdDeviation="12" /></filter><path fill="#10469d" d="M0 0h2868v582H0z"/><g filter="url(#b)" transform="translate(5.6 5.6) scale(11.20313)" fill-opacity=".5"><ellipse fill="#3395f9" rx="1" ry="1" transform="matrix(7.02468 17.4412 -31.81983 12.81586 68.7 19.6)"/><ellipse fill="#4990ff" rx="1" ry="1" transform="matrix(6.66715 -11.08704 32.51412 19.55224 192.5 15.4)"/><ellipse fill="#011a3a" cx="128" cy="51" rx="48" ry="24"/><path fill="#03ff53" d="M162.5 3.6l14 12-6.3 11.4-2.8 4z"/><path fill="#00ff4b" d="M213.2 42.8l-23 .6 10.6-10.5 23.9 13z"/><ellipse fill="#00116e" rx="1" ry="1" transform="matrix(116.60471 -81.36832 15.67633 22.46493 16.8 0)"/><ellipse fill="#00106b" rx="1" ry="1" transform="matrix(-10.67784 17.17959 -51.76432 -32.1737 227 0)"/><path fill="#00ff3a" d="M54 31l9 11H39z"/><path fill="#00f82d" d="M88 28l4-23-16 11z"/><path fill="#00215e" d="M128 27L75-16l94 9z"/><ellipse fill="#5770fc" rx="1" ry="1" transform="rotate(-30.6 54 -102.6) scale(39.52108 7.50297)"/><ellipse fill="#00011d" rx="1" ry="1" transform="rotate(-51.6 72.2 -14.6) scale(6.24169 18.66042)"/></g></svg>