<svg xmlns="http://www.w3.org/2000/svg" viewBox="0 0 2868 1200"><filter id="c"><feGaussianBlur stdDeviation="55" /></filter><path fill="#0f3f94" d="M0 0h2868v1198H0z"/><g filter='url(#c)' fill-opacity='.5'><path fill="#3ea3fd" fill-opacity=".5" d="M898.4 238.7l237 326.3-543.8 395-237-326.2z"/><ellipse fill="#37a0ff" fill-opacity=".5" rx="1" ry="1" transform="matrix(94.75214 -196.50518 351.71025 169.58992 2115.7 594)"/><ellipse fill="#0a204c" fill-opacity=".5" rx="1" ry="1" transform="matrix(-414.30416 37.94634 -27.13505 -296.2648 1451.6 241.3)"/><ellipse fill="#0c2d52" fill-opacity=".5" rx="1" ry="1" transform="matrix(503.4976 5.32501 -2.20634 208.61717 1458.8 903.2)"/><ellipse fill="#000f67" fill-opacity=".5" rx="1" ry="1" transform="rotate(34.4 771.8 4084.3) scale(437.86302 237.17507)"/><ellipse fill="#001067" fill-opacity=".5" rx="1" ry="1" transform="matrix(-303.40291 286.45905 -185.35049 -196.31385 419.6 246.8)"/><path fill="#6d7ff7" fill-opacity=".5" d="M1876.5 431.3l750.6 280.1L1843 117.6z"/><path fill="#00f025" fill-opacity=".5" d="M980.3 711.4l-100.9-168 168-123.3z"/><path fill="#00e329" fill-opacity=".5" d="M1977.4 565.8l-78.5 156.8-78.4-313.7z"/><path fill="#00d413" fill-opacity=".5" d="M621.8 733.8L442.5 834.6l325 44.8z"/><path fill="#00f22f" fill-opacity=".5" d="M2156.6 834.6l313.7 22.4-212.9-145.6z"/><path fill="#3176fa" fill-opacity=".5" d="M876 293.9l232 462.8 134.4-179.4-315.5-359.9z"/></g></svg>
