<svg xmlns="http://www.w3.org/2000/svg" viewBox="0 0 1200 931"><filter id="b"><feGaussianBlur stdDeviation="12" /></filter><path fill="#12459d" d="M0 0h1200v928H0z"/><g filter="url(#b)" transform="translate(2.3 2.3) scale(4.6875)" fill-opacity=".5"><ellipse fill="#409dfd" rx="1" ry="1" transform="matrix(33.00048 22.2591 -49.5787 73.50343 120.4 99.3)"/><ellipse fill="#000016" rx="1" ry="1" transform="matrix(13.0061 6.50346 -45.96962 91.93343 166 197)"/><ellipse fill="#00095e" cx="42" cy="41" rx="58" ry="71"/><ellipse fill="#00f030" rx="1" ry="1" transform="matrix(-2.88244 -13.63157 21.68712 -4.58582 118.6 148.9)"/><path fill="#00ff2e" d="M152.6 75.7l21.5-30.2 6-8 4 66.4z"/><path fill="#000633" d="M64 245L6.5 198.3 48 147l57.5 46.5z"/><path fill="#00000f" d="M221 82l-35-98-15 43z"/><ellipse fill="#7d8dff" rx="1" ry="1" transform="matrix(-9.42728 -6.6256 51.20061 -72.8511 91.2 96.8)"/><ellipse fill="#0545e5" rx="1" ry="1" transform="rotate(24.8 -184.7 394.3) scale(46.62611 31.0946)"/><ellipse fill="#1464ff" rx="1" ry="1" transform="matrix(-33.50475 8.4506 -3.80637 -15.0914 127.2 176)"/><path fill="#525e68" d="M58 158l-71-70-3 117z"/><path fill="#919cb9" d="M208.4 190.3l45.5 22.7 17.1-36.5-13.6-6.1z"/></g></svg>