<svg xmlns="http://www.w3.org/2000/svg" viewBox="0 0 1200 1434"><filter id="b"><feGaussianBlur stdDeviation="12" /></filter><path fill="#0f3f94" d="M0 0h1198v1434H0z"/><g filter="url(#b)" transform="translate(2.8 2.8) scale(5.60156)" fill-opacity=".5"><path fill="#4395ff" d="M142 24l-27 202-77-64z"/><path fill="#00ff4c" d="M130 111l19 16 4-56z"/><ellipse fill="#0c1e48" rx="1" ry="1" transform="matrix(54.10578 -2.92852 2.33757 43.1877 35 228)"/><ellipse fill="#000f67" cx="31" cy="78" rx="56" ry="56"/><ellipse fill="#00ed22" cx="101" cy="171" rx="18" ry="12"/><ellipse fill="#000a21" rx="1" ry="1" transform="matrix(10.15468 4.92718 -20.82252 42.91424 151.3 187.6)"/><path fill="#919eff" d="M39.7 165.2L81 103.9l13.2 8.9L53 174.1z"/><ellipse fill="#094ff2" rx="1" ry="1" transform="matrix(12.29471 -23.02595 34.96158 18.66775 121.4 139.7)"/><ellipse fill="#00146e" rx="1" ry="1" transform="matrix(-13.99127 9.05807 -41.97743 -64.83914 134.7 34.5)"/><ellipse fill="#9ba5c0" cx="213" cy="206" rx="32" ry="12"/><ellipse fill="#143355" rx="1" ry="1" transform="rotate(-161.6 105.2 106.2) scale(62.66511 32.78381)"/><path fill="#ffe786" d="M91.8 183.5l-20.4-26.7 3.2 6.6L49.3 149z"/></g></svg>